# Exported from Wings 3D 2.2.9
mtllib Excavadora_01.mtl
o fangchangwatuji_Mesh_sep96
#94 vertices, 83 faces
v 6.81053800 0.35816000 0.17025200
v 6.84201500 -2.7739000e-2 0.17025200
v 6.84201500 -2.7739000e-2 0.13133600
v 6.81054300 0.35816800 0.13133600
v 6.68566300 0.24631300 0.13133600
v 6.73112500 0.48318200 0.13132900
v 6.73112500 0.48318200 0.17024500
v 6.68566300 0.24631300 0.17025200
v 6.76985900 0.60455400 0.43837000
v 5.99095400 1.02379300 0.43837000
v 6.15943900 1.13082000 0.43837000
v 6.80023000 0.78696200 0.43837000
v 6.67831500 0.25019300 0.43837000
v 6.69669600 0.38153500 0.43837000
v 6.69669600 0.38153400 -0.43448200
v 6.67831500 0.25019300 -0.43448200
v 6.76985900 0.60455400 -0.43448200
v 6.80023000 0.78696200 -0.43448200
v 6.76407800 0.96959000 0.43837000
v 6.76407800 0.96959000 -0.43448200
v 6.66798700 1.10737500 0.43837000
v 6.66798700 1.10737500 -0.43448200
v 6.52641800 1.18189800 0.43837000
v 6.52641800 1.18189800 -0.43448200
v 6.35035200 1.18798800 0.43837000
v 6.35035200 1.18798800 -0.43448200
v 6.15943900 1.13082000 -0.43448200
v 6.16254400 1.15137000 0.46232600
v 6.35123100 1.20808300 0.46232600
v 6.35123100 1.20808300 -0.45843800
v 6.16254400 1.15137000 -0.45843800
v 6.53110500 1.20113700 0.46232600
v 6.53110500 1.20113700 -0.45843800
v 6.68042200 1.12421700 0.46232600
v 6.68042200 1.12421700 -0.45843800
v 6.77952200 0.98206000 0.46232600
v 6.77952200 0.98206000 -0.45843800
v 6.82074900 0.78730500 0.46232600
v 6.82074900 0.78730500 -0.45843800
v 6.78743600 0.59855700 0.46232600
v 6.78743600 0.59855700 -0.45843800
v 6.71126100 0.37076200 0.46232600
v 6.71126100 0.37076200 -0.45843800
v 6.71936600 0.35743200 0.47598700
v 6.71761300 0.22118200 0.47598700
v 6.71761300 0.22118200 -0.47209800
v 6.71936600 0.35743200 -0.47209800
v 5.98351700 1.03655100 0.46232600
v 5.91680000 0.95728800 0.43837000
v 5.90495900 0.96602900 0.46232600
v 5.86204500 0.87049400 0.47598700
v 5.87205000 0.92024700 0.47598700
v 5.88552200 0.91030200 0.43837000
v 5.90144800 0.96127400 0.47598700
v 5.87769800 0.87187900 0.43837000
v 5.89588500 0.84214100 0.43837000
v 5.88593700 0.83516100 0.43912800
v 5.88593700 0.83516100 0.47598700
v 5.98351700 1.03655100 -0.45843800
v 5.90495900 0.96602900 -0.45843800
v 5.91680000 0.95728800 -0.43448200
v 5.99095400 1.02379300 -0.43448200
v 5.87205000 0.92024700 -0.47209800
v 5.86204500 0.87049400 -0.47209800
v 5.88552200 0.91030200 -0.43448200
v 5.87769800 0.87187900 -0.43448200
v 5.89588500 0.84214100 -0.43448200
v 5.88593700 0.83516100 -0.43524100
v 5.88593700 0.83516100 -0.47209800
v 5.90144800 0.96127400 -0.47209800
v 6.81053800 0.35816000 0.42442100
v 6.84201500 -2.7739000e-2 0.42442100
v 6.84201500 -2.7739000e-2 0.38550500
v 6.81054300 0.35816800 0.38550500
v 6.68566300 0.24631300 0.38550500
v 6.73112500 0.48318200 0.38549800
v 6.73112500 0.48318200 0.42441400
v 6.68566300 0.24631300 0.42442100
v 6.81053800 0.35816000 -0.36427300
v 6.84201500 -2.7739000e-2 -0.36427300
v 6.84201500 -2.7739000e-2 -0.40318900
v 6.81054300 0.35816800 -0.40318900
v 6.68566300 0.24631300 -0.40318900
v 6.73112500 0.48318200 -0.40319600
v 6.73112500 0.48318200 -0.36428000
v 6.68566300 0.24631300 -0.36427300
v 6.81053800 0.35816000 -9.7626000e-2
v 6.84201500 -2.7739000e-2 -9.7626000e-2
v 6.84201500 -2.7739000e-2 -0.13654200
v 6.81054300 0.35816800 -0.13654200
v 6.68566300 0.24631300 -0.13654200
v 6.73112500 0.48318200 -0.13654900
v 6.73112500 0.48318200 -9.7633000e-2
v 6.68566300 0.24631300 -9.7626000e-2
vt -3.3600000e-4 0.26880100
vt -2.5800000e-4 0.16923500
vt 5.4970000e-3 0.26880100
vt 5.5810000e-3 0.16923500
vt 2.1938000e-2 0.26880100
vt 2.2023000e-2 0.16923600
vt 2.3805000e-2 0.26880100
vt 2.3887000e-2 0.16923500
vt 5.2530000e-2 0.26880100
vt 5.2612000e-2 0.16923500
vt 7.5449000e-2 0.26880100
vt 7.5531000e-2 0.16923500
vt 9.9154000e-2 0.26880100
vt 9.9236000e-2 0.16923500
vt 0.11970400 0.26880100
vt 0.11979000 0.16923500
vt 0.13964900 0.26880100
vt 0.13973500 0.16923500
vt 0.16103200 0.26880100
vt 0.16111900 0.16923600
vt 0.18444200 0.26880100
vt 0.18452800 0.16923500
vt 0.20975900 0.26880100
vt 0.20982600 0.16923500
vt 0.22214800 0.16776800
vt 0.22214800 0.16923500
vt 0.22214800 0.26880100
vt 0.22214800 0.27027400
vt 0.22901600 0.16782600
vt 0.22901600 0.27027400
vt 0.23500100 0.16788300
vt 0.23500100 0.27027400
vt 0.23998200 0.26633600
vt 0.24000600 0.17179600
vt 0.24140700 0.26626100
vt 0.24144000 0.17186400
vt 0.24549400 0.26626300
vt 0.24555300 0.17184000
vt 0.25008700 0.26623900
vt 0.25017700 0.17185000
vt 0.25668600 0.26634400
vt 0.25679800 0.17174800
vt 0.26834500 0.26637700
vt 0.26849800 0.17173100
vt 0.29158900 0.26588500
vt 0.29183200 0.17229000
vt 0.31495000 0.26594400
vt 0.31519600 0.17234900
vt 0.33560600 0.26599600
vt 0.33585400 0.17240200
vt 0.35436900 0.26604300
vt 0.35461700 0.17244900
vt 0.37407100 0.26609300
vt 0.37431900 0.17249900
vt 0.39591000 0.26614800
vt 0.39615500 0.17255400
vt 0.41760400 0.26620300
vt 0.41784700 0.17260800
vt 0.44514600 0.26627300
vt 0.44538500 0.17267800
vt 0.46088300 0.26631200
vt 0.46111900 0.17271800
vt 0.46358500 0.22817700
vt 0.46874400 0.18423400
vt 0.46883800 0.18425300
vt 0.46908200 0.17728900
vt 0.46917600 0.17730800
vt 0.47110100 0.22660400
vt 0.47111800 0.17290800
vt 0.47121100 0.17292800
vt 0.47122700 0.19625000
vt 0.47132100 0.19626900
vt 0.47462100 0.16966800
vt 0.47471400 0.16968600
vt 0.47509600 0.17106800
vt 0.47519000 0.17108600
vt 0.47718900 0.22208100
vt 0.47923900 0.30295600
vt 0.48009400 0.21918300
vt 0.48018800 0.21920300
vt 0.48623700 0.30052700
vt 0.49483200 0.23881600
vt 0.49492600 0.23883600
vt 0.49800800 0.32778400
vt 0.50453200 0.32285300
vt 0.50777500 0.27596000
vt 0.50928600 0.29780300
vt 0.50930900 0.29779400
vt 0.51259100 0.31822600
vt 0.51261000 0.31822000
vt 0.51272600 0.25109400
vt 0.51282000 0.25111300
vt 0.51386200 0.27143700
vt 0.51612000 0.27758300
vt 0.51614500 0.27757300
vt 0.52507200 0.33655800
vt 0.52508200 0.33655400
vt 0.53220800 0.25406600
vt 0.53230200 0.25408600
vt 0.53240000 0.25924900
vt 0.53242200 0.25923900
vt 0.54450600 0.35110400
vt 0.54452300 0.35111900
vt 0.55181200 0.24744100
vt 0.55190600 0.24746100
vt 0.55354000 0.24874200
vt 0.55355100 0.24873100
vt 0.56875600 0.23198700
vt 0.56885000 0.23200700
vt 0.56898400 0.36044500
vt 0.56902800 0.36044900
vt 0.57909100 0.21168800
vt 0.57918500 0.21170800
vt 0.58167700 0.23963400
vt 0.58168200 0.23962000
vt 0.58172100 0.36306100
vt 0.58178300 0.36307200
vt 0.58337700 0.23785500
vt 0.58338300 0.23784200
vt 0.58342000 0.36305900
vt 0.58348700 0.36307100
vt 0.58815700 0.18423400
vt 0.58825100 0.18425300
vt 0.58971300 0.36298800
vt 0.58980700 0.36302700
vt 0.59552900 0.36032000
vt 0.59566200 0.36034700
vt 0.59594500 0.16966900
vt 0.59603900 0.16968800
vt 0.59719000 0.35532700
vt 0.59720300 0.22806200
vt 0.59721800 0.22805400
vt 0.59729300 0.35533200
vt 0.60132600 0.35538300
vt 0.60143000 0.35538200
vt 0.60144200 0.23407400
vt 0.60145400 0.23406700
vn 0.94808025 0.31803118 9.3594546e-5
vn 0.94808025 0.31803118 9.3594546e-5
vn -1.0274123e-5 1.1470859e-5 1.00000000
vn 0.29544426 -0.95535996 1.6693334e-4
vn 0.29544426 -0.95535996 1.6693334e-4
vn -1.0274123e-5 1.1470859e-5 1.00000000
vn 0.29544426 -0.95535996 1.6693334e-4
vn 1.0274394e-5 -1.1470800e-5 -1.00000000
vn 0.29544426 -0.95535996 1.6693334e-4
vn 0.94808025 0.31803118 9.3594546e-5
vn 1.0274394e-5 -1.1470800e-5 -1.00000000
vn 0.94808025 0.31803118 9.3594546e-5
vn 1.0274394e-5 -1.1470800e-5 -1.00000000
vn -0.86858309 -0.49554356 0.0000000e+0
vn 1.0274394e-5 -1.1470800e-5 -1.00000000
vn 0.84409366 0.53619575 1.0933850e-4
vn 0.84409366 0.53619575 1.0933850e-4
vn -1.0274123e-5 1.1470859e-5 1.00000000
vn -0.86858309 -0.49554356 0.0000000e+0
vn -1.0274123e-5 1.1470859e-5 1.00000000
vn 0.0000000e+0 0.0000000e+0 -1.00000000
vn -0.97110208 0.23866452 -8.9538132e-8
vn -0.97110208 0.23866452 -8.9538132e-8
vn 0.0000000e+0 0.0000000e+0 -1.00000000
vn 0.0000000e+0 0.0000000e+0 -1.00000000
vn 0.60398961 -0.79699219 0.0000000e+0
vn 0.60398961 -0.79699219 0.0000000e+0
vn 0.0000000e+0 0.0000000e+0 -1.00000000
vn -0.0000000e+0 -0.0000000e+0 -1.00000000
vn 0.41544817 -0.90961685 0.0000000e+0
vn 0.41544817 -0.90961685 0.0000000e+0
vn -0.0000000e+0 -0.0000000e+0 -1.00000000
vn -0.0000000e+0 -0.0000000e+0 -1.00000000
vn -0.99988417 -1.5219866e-2 0.0000000e+0
vn -0.99988417 -1.5219866e-2 0.0000000e+0
vn -0.0000000e+0 -0.0000000e+0 -1.00000000
vn -0.70180460 9.4511388e-2 -0.70607216
vn -0.70180460 9.4511388e-2 -0.70607216
vn -0.59392619 -0.80451953 2.6220740e-6
vn -0.59392619 -0.80451953 2.6220740e-6
vn -0.87134712 0.19970078 -0.44818946
vn -0.87134712 0.19970078 -0.44818946
vn -0.87134712 0.19970078 -0.44818946
vn -5.4505760e-16 0.0000000e+0 -1.00000000
vn -5.4505760e-16 0.0000000e+0 -1.00000000
vn -0.87134822 0.19969772 0.44818868
vn -0.87134822 0.19969772 0.44818868
vn -0.87134822 0.19969772 0.44818868
vn 5.4505749e-16 0.0000000e+0 1.00000000
vn 5.4505749e-16 0.0000000e+0 1.00000000
vn -0.70180667 9.4506774e-2 0.70607072
vn -0.59392619 -0.80451953 -2.6221788e-6
vn -0.70180667 9.4506774e-2 0.70607072
vn -0.59392619 -0.80451953 -2.6221788e-6
vn -0.97110208 0.23866452 -8.9538132e-8
vn -0.97110208 0.23866452 -8.9538132e-8
vn 0.0000000e+0 0.0000000e+0 1.00000000
vn 0.0000000e+0 0.0000000e+0 1.00000000
vn -0.99988417 -1.5219866e-2 0.0000000e+0
vn -0.99988417 -1.5219866e-2 0.0000000e+0
vn 0.0000000e+0 0.0000000e+0 1.00000000
vn 0.0000000e+0 0.0000000e+0 1.00000000
vn -0.92020099 -0.39144621 0.0000000e+0
vn -0.92020099 -0.39144621 0.0000000e+0
vn 0.0000000e+0 0.0000000e+0 -1.00000000
vn 0.0000000e+0 0.0000000e+0 -1.00000000
vn -0.92020099 -0.39144621 0.0000000e+0
vn -0.92020099 -0.39144621 0.0000000e+0
vn 0.0000000e+0 0.0000000e+0 1.00000000
vn 0.0000000e+0 0.0000000e+0 1.00000000
vn -0.66177529 -0.74970226 0.0000000e+0
vn -0.66177529 -0.74970226 0.0000000e+0
vn 0.0000000e+0 0.0000000e+0 -1.00000000
vn -0.66177529 -0.74970226 0.0000000e+0
vn -0.66177529 -0.74970226 0.0000000e+0
vn 0.0000000e+0 0.0000000e+0 1.00000000
vn -0.25665790 -0.96650231 0.0000000e+0
vn -0.25665790 -0.96650231 0.0000000e+0
vn 0.0000000e+0 0.0000000e+0 -1.00000000
vn -0.25665790 -0.96650231 0.0000000e+0
vn -0.25665790 -0.96650231 0.0000000e+0
vn 0.0000000e+0 0.0000000e+0 1.00000000
vn 0.12783538 -0.99179540 0.0000000e+0
vn 0.12783538 -0.99179540 0.0000000e+0
vn 0.0000000e+0 0.0000000e+0 -1.00000000
vn 0.0000000e+0 0.0000000e+0 -1.00000000
vn 0.12783538 -0.99179540 0.0000000e+0
vn 0.12783538 -0.99179540 0.0000000e+0
vn 0.0000000e+0 0.0000000e+0 1.00000000
vn 0.0000000e+0 0.0000000e+0 1.00000000
vn 0.41544817 -0.90961685 0.0000000e+0
vn 0.41544817 -0.90961685 0.0000000e+0
vn 0.0000000e+0 0.0000000e+0 1.00000000
vn 0.0000000e+0 0.0000000e+0 1.00000000
vn -0.41789173 0.90849684 0.0000000e+0
vn 0.0000000e+0 0.0000000e+0 1.00000000
vn -0.41789173 0.90849684 0.0000000e+0
vn 0.0000000e+0 0.0000000e+0 1.00000000
vn -0.12635124 0.99198557 0.0000000e+0
vn -0.12635124 0.99198557 0.0000000e+0
vn 0.0000000e+0 0.0000000e+0 1.00000000
vn 0.0000000e+0 0.0000000e+0 1.00000000
vn -0.12635124 0.99198557 0.0000000e+0
vn -0.12635124 0.99198557 0.0000000e+0
vn 0.0000000e+0 0.0000000e+0 -1.00000000
vn 0.0000000e+0 0.0000000e+0 -1.00000000
vn -0.41789173 0.90849684 0.0000000e+0
vn -0.41789173 0.90849684 0.0000000e+0
vn 0.0000000e+0 0.0000000e+0 -1.00000000
vn 0.0000000e+0 0.0000000e+0 -1.00000000
vn 0.25431916 0.96712035 0.0000000e+0
vn 0.25431916 0.96712035 0.0000000e+0
vn 0.0000000e+0 0.0000000e+0 1.00000000
vn 0.25431916 0.96712035 0.0000000e+0
vn 0.25431916 0.96712035 0.0000000e+0
vn 0.0000000e+0 0.0000000e+0 -1.00000000
vn 0.65851919 0.75256394 0.0000000e+0
vn 0.65851919 0.75256394 0.0000000e+0
vn 0.0000000e+0 0.0000000e+0 1.00000000
vn 0.65851919 0.75256394 0.0000000e+0
vn 0.65851919 0.75256394 0.0000000e+0
vn 0.0000000e+0 0.0000000e+0 -1.00000000
vn 0.91763922 0.39741446 0.0000000e+0
vn 0.91763922 0.39741446 0.0000000e+0
vn 0.0000000e+0 0.0000000e+0 1.00000000
vn 0.0000000e+0 0.0000000e+0 1.00000000
vn 0.91763922 0.39741446 0.0000000e+0
vn 0.91763922 0.39741446 0.0000000e+0
vn 0.0000000e+0 0.0000000e+0 -1.00000000
vn 0.0000000e+0 0.0000000e+0 -1.00000000
vn 0.99985626 1.6954897e-2 0.0000000e+0
vn 0.99985626 1.6954897e-2 0.0000000e+0
vn 0.0000000e+0 0.0000000e+0 1.00000000
vn 0.0000000e+0 0.0000000e+0 1.00000000
vn 0.99985626 1.6954897e-2 0.0000000e+0
vn 0.99985626 1.6954897e-2 0.0000000e+0
vn 0.0000000e+0 0.0000000e+0 -1.00000000
vn 0.0000000e+0 0.0000000e+0 -1.00000000
vn 0.96923235 -0.24614761 0.0000000e+0
vn 0.96923235 -0.24614761 0.0000000e+0
vn 0.0000000e+0 0.0000000e+0 1.00000000
vn 0.0000000e+0 0.0000000e+0 1.00000000
vn 0.96923235 -0.24614761 0.0000000e+0
vn 0.96923235 -0.24614761 0.0000000e+0
vn 0.0000000e+0 0.0000000e+0 -1.00000000
vn 0.0000000e+0 0.0000000e+0 -1.00000000
vn 0.94837894 -0.31713938 0.0000000e+0
vn 0.72772117 0.65405874 0.20646808
vn 0.72772117 0.65405874 0.20646808
vn 0.0000000e+0 0.0000000e+0 1.00000000
vn 0.94837894 -0.31713938 0.0000000e+0
vn 0.0000000e+0 0.0000000e+0 -1.00000000
vn 0.72771982 0.65405604 -0.20648136
vn 0.72771982 0.65405604 -0.20648136
vn 0.99991724 -1.2864990e-2 0.0000000e+0
vn 0.0000000e+0 0.0000000e+0 1.00000000
vn 0.72772117 0.65405874 0.20646808
vn 0.72772117 0.65405874 0.20646808
vn 0.99991724 -1.2864990e-2 0.0000000e+0
vn 0.0000000e+0 0.0000000e+0 1.00000000
vn -0.59392619 -0.80451953 2.6220740e-6
vn -0.59392619 -0.80451953 2.6220740e-6
vn 0.99991724 -1.2864990e-2 0.0000000e+0
vn -0.59392619 -0.80451953 -2.6221788e-6
vn 0.0000000e+0 0.0000000e+0 -1.00000000
vn -0.59392619 -0.80451953 -2.6221788e-6
vn 0.99991724 -1.2864990e-2 0.0000000e+0
vn 0.0000000e+0 0.0000000e+0 -1.00000000
vn 0.72771982 0.65405604 -0.20648136
vn 0.72771982 0.65405604 -0.20648136
vn 0.0000000e+0 0.0000000e+0 1.00000000
vn -0.60590932 0.79553372 0.0000000e+0
vn -0.60590932 0.79553372 0.0000000e+0
vn 0.0000000e+0 0.0000000e+0 1.00000000
vn 0.75605981 -0.65450253 0.0000000e+0
vn 0.75605981 -0.65450253 0.0000000e+0
vn -3.6337174e-16 0.0000000e+0 -1.00000000
vn -3.6337174e-16 0.0000000e+0 -1.00000000
vn -3.6337174e-16 0.0000000e+0 -1.00000000
vn -0.74434183 0.66779881 0.0000000e+0
vn -0.81284556 0.58244653 -6.1757933e-3
vn 0.54511002 0.73836373 0.39708194
vn -0.74434183 0.66779881 0.0000000e+0
vn 0.0000000e+0 0.0000000e+0 1.00000000
vn -0.94384102 -0.33039996 0.0000000e+0
vn -0.94384102 -0.33039996 0.0000000e+0
vn -0.94384102 -0.33039996 0.0000000e+0
vn 0.0000000e+0 0.0000000e+0 1.00000000
vn -0.81284556 0.58244653 -6.1757933e-3
vn -0.91678329 0.39938503 0.0000000e+0
vn -0.91678329 0.39938503 0.0000000e+0
vn 0.0000000e+0 0.0000000e+0 1.00000000
vn 0.92334134 -0.38398016 0.0000000e+0
vn 0.0000000e+0 0.0000000e+0 -1.00000000
vn 0.92334134 -0.38398016 0.0000000e+0
vn -0.81284556 0.58244653 -6.1757933e-3
vn 0.0000000e+0 0.0000000e+0 1.00000000
vn 0.54511002 0.73836373 0.39708194
vn 0.0000000e+0 0.0000000e+0 1.00000000
vn 0.0000000e+0 0.0000000e+0 -1.00000000
vn 0.98489972 0.17312581 0.0000000e+0
vn 0.98489972 0.17312581 0.0000000e+0
vn -3.5896074e-3 -4.7447015e-3 -0.99998230
vn -5.4505760e-16 0.0000000e+0 -1.00000000
vn -5.4505760e-16 0.0000000e+0 -1.00000000
vn 0.85310592 0.52173776 0.0000000e+0
vn 0.57436771 -0.81859742 0.0000000e+0
vn -3.5896074e-3 -4.7447015e-3 -0.99998230
vn -0.75998285 -0.64994313 1.7707594e-6
vn -0.75998285 -0.64994313 1.7707594e-6
vn -0.75998285 -0.64994313 1.7707594e-6
vn 0.57436771 -0.81859742 0.0000000e+0
vn 0.0000000e+0 0.0000000e+0 1.00000000
vn -0.72157892 -0.69233219 2.6604913e-6
vn -0.72157892 -0.69233219 2.6604913e-6
vn 0.0000000e+0 0.0000000e+0 1.00000000
vn -0.60590932 0.79553372 0.0000000e+0
vn -0.60590932 0.79553372 0.0000000e+0
vn 0.0000000e+0 0.0000000e+0 -1.00000000
vn 0.0000000e+0 0.0000000e+0 -1.00000000
vn -0.74434183 0.66779881 0.0000000e+0
vn 0.0000000e+0 0.0000000e+0 -1.00000000
vn -0.74434183 0.66779881 0.0000000e+0
vn 0.54510373 0.73835521 -0.39710642
vn -0.81284556 0.58244653 6.1762454e-3
vn 0.75605981 -0.65450253 0.0000000e+0
vn 0.75605981 -0.65450253 0.0000000e+0
vn 3.6337166e-16 0.0000000e+0 1.00000000
vn 3.6337166e-16 0.0000000e+0 1.00000000
vn 3.6337166e-16 0.0000000e+0 1.00000000
vn 0.60398961 -0.79699219 0.0000000e+0
vn 0.60398961 -0.79699219 0.0000000e+0
vn 0.0000000e+0 0.0000000e+0 1.00000000
vn 0.0000000e+0 0.0000000e+0 1.00000000
vn -0.91678329 0.39938503 0.0000000e+0
vn -0.91678329 0.39938503 0.0000000e+0
vn -0.0000000e+0 0.0000000e+0 -1.00000000
vn -0.81284556 0.58244653 6.1762454e-3
vn -0.94384102 -0.33039996 0.0000000e+0
vn -0.94384102 -0.33039996 0.0000000e+0
vn -0.94384102 -0.33039996 0.0000000e+0
vn -0.0000000e+0 0.0000000e+0 -1.00000000
vn 0.92334134 -0.38398016 0.0000000e+0
vn 0.92334134 -0.38398016 0.0000000e+0
vn 0.0000000e+0 -0.0000000e+0 1.00000000
vn 0.98489972 0.17312581 0.0000000e+0
vn 0.98489972 0.17312581 0.0000000e+0
vn 0.0000000e+0 -0.0000000e+0 1.00000000
vn 0.85310592 0.52173776 0.0000000e+0
vn -3.5943654e-3 -4.7509905e-3 0.99998225
vn 5.4505749e-16 0.0000000e+0 1.00000000
vn 5.4505749e-16 0.0000000e+0 1.00000000
vn 0.57436771 -0.81859742 0.0000000e+0
vn -3.5943654e-3 -4.7509905e-3 0.99998225
vn -0.75998285 -0.64994313 -1.7708302e-6
vn -0.75998285 -0.64994313 -1.7708302e-6
vn -0.75998285 -0.64994313 -1.7708302e-6
vn 0.57436771 -0.81859742 0.0000000e+0
vn 0.0000000e+0 0.0000000e+0 -1.00000000
vn -0.72157892 -0.69233219 -2.6605976e-6
vn -0.72157892 -0.69233219 -2.6605976e-6
vn 0.0000000e+0 0.0000000e+0 -1.00000000
vn 0.0000000e+0 0.0000000e+0 -1.00000000
vn 0.54510373 0.73835521 -0.39710642
vn 0.0000000e+0 0.0000000e+0 -1.00000000
vn -0.81284556 0.58244653 6.1762454e-3
vn 0.94808025 0.31803118 9.3594546e-5
vn 0.94808025 0.31803118 9.3594546e-5
vn -1.0274123e-5 1.1470859e-5 1.00000000
vn 0.29544426 -0.95535996 1.6693334e-4
vn 0.29544426 -0.95535996 1.6693334e-4
vn -1.0274123e-5 1.1470859e-5 1.00000000
vn 0.29544426 -0.95535996 1.6693334e-4
vn 1.0274394e-5 -1.1470800e-5 -1.00000000
vn 0.29544426 -0.95535996 1.6693334e-4
vn 0.94808025 0.31803118 9.3594546e-5
vn 1.0274394e-5 -1.1470800e-5 -1.00000000
vn 0.94808025 0.31803118 9.3594546e-5
vn 1.0274394e-5 -1.1470800e-5 -1.00000000
vn -0.86858309 -0.49554356 0.0000000e+0
vn 1.0274394e-5 -1.1470800e-5 -1.00000000
vn 0.84409366 0.53619575 1.0933850e-4
vn 0.84409366 0.53619575 1.0933850e-4
vn -1.0274123e-5 1.1470859e-5 1.00000000
vn -0.86858309 -0.49554356 0.0000000e+0
vn -1.0274123e-5 1.1470859e-5 1.00000000
vn 0.94808025 0.31803118 9.3594546e-5
vn 0.94808025 0.31803118 9.3594546e-5
vn -1.0274123e-5 1.1470859e-5 1.00000000
vn 0.29544426 -0.95535996 1.6693334e-4
vn 0.29544426 -0.95535996 1.6693334e-4
vn -1.0274123e-5 1.1470859e-5 1.00000000
vn 0.29544426 -0.95535996 1.6693334e-4
vn 1.0274394e-5 -1.1470800e-5 -1.00000000
vn 0.29544426 -0.95535996 1.6693334e-4
vn 0.94808025 0.31803118 9.3594546e-5
vn 1.0274394e-5 -1.1470800e-5 -1.00000000
vn 0.94808025 0.31803118 9.3594546e-5
vn 1.0274394e-5 -1.1470800e-5 -1.00000000
vn -0.86858309 -0.49554356 0.0000000e+0
vn 1.0274394e-5 -1.1470800e-5 -1.00000000
vn 0.84409366 0.53619575 1.0933850e-4
vn 0.84409366 0.53619575 1.0933850e-4
vn -1.0274123e-5 1.1470859e-5 1.00000000
vn -0.86858309 -0.49554356 0.0000000e+0
vn -1.0274123e-5 1.1470859e-5 1.00000000
vn 0.94808025 0.31803118 9.3594546e-5
vn 0.94808025 0.31803118 9.3594546e-5
vn -1.0274123e-5 1.1470859e-5 1.00000000
vn 0.29544426 -0.95535996 1.6693334e-4
vn 0.29544426 -0.95535996 1.6693334e-4
vn -1.0274123e-5 1.1470859e-5 1.00000000
vn 0.29544426 -0.95535996 1.6693334e-4
vn 1.0274394e-5 -1.1470800e-5 -1.00000000
vn 0.29544426 -0.95535996 1.6693334e-4
vn 0.94808025 0.31803118 9.3594546e-5
vn 1.0274394e-5 -1.1470800e-5 -1.00000000
vn 0.94808025 0.31803118 9.3594546e-5
vn 1.0274394e-5 -1.1470800e-5 -1.00000000
vn -0.86858309 -0.49554356 0.0000000e+0
vn 1.0274394e-5 -1.1470800e-5 -1.00000000
vn 0.84409366 0.53619575 1.0933850e-4
vn 0.84409366 0.53619575 1.0933850e-4
vn -1.0274123e-5 1.1470859e-5 1.00000000
vn -0.86858309 -0.49554356 0.0000000e+0
vn -1.0274123e-5 1.1470859e-5 1.00000000
g fangchangwatuji_Mesh_sep96_VAS_Wajueji_chby
usemtl VAS_Wajueji_chby
s 1
f 1/81/3 7/85/18 8/86/20 2/68/6
f 3/68/8 5/86/13 6/85/15 4/81/11
f 9/113/24 14/123/45 49/65/179 10/72/28
f 10/72/25 11/80/29 12/109/33 9/113/21
f 11/80/32 25/83/85 19/105/65 12/109/36
f 14/123/44 56/76/205 49/65/178
f 17/112/57 62/71/233 61/64/230 15/122/50
f 18/108/61 27/79/93 62/71/234 17/112/58
f 19/105/66 25/83/86 23/92/79 21/99/73
f 20/104/70 26/82/90 27/79/94 18/108/62
f 22/98/76 24/91/82 26/82/89 20/104/69
f 28/102/98 38/101/134 36/95/125 29/97/101
f 28/102/96 48/110/171 40/107/141 38/101/133
f 29/97/102 36/95/126 34/88/119 32/90/113
f 30/96/105 37/94/129 39/100/138 31/103/110
f 33/89/116 35/87/122 37/94/130 30/96/106
f 39/100/137 41/106/146 59/111/220 31/103/109
f 40/107/142 48/110/174 50/116/184 42/115/150
f 43/114/152 60/117/222 59/111/219 41/106/145
f 45/3/159 46/4/163 47/6/167 44/5/155
f 49/65/177 56/76/204 55/70/200 53/67/194
f 52/30/189 54/28/196 50/27/181
f 57/33/212 68/34/258 67/36/253 56/35/207
f 60/26/225 70/25/266 63/29/238
f 61/64/229 67/75/252 15/122/49
f 65/66/245 66/69/248 67/75/251 61/64/228
f 71/81/269 77/85/284 78/86/286 72/68/272
f 73/68/274 75/86/279 76/85/281 74/81/277
f 79/81/289 85/85/304 86/86/306 80/68/292
f 81/68/294 83/86/299 84/85/301 82/81/297
f 87/81/309 93/85/324 94/86/326 88/68/312
f 89/68/314 91/86/319 92/85/321 90/81/317
s 2
f 2/63/4 3/68/7 4/81/10 1/78/1
f 2/77/5 8/93/19 5/86/14 3/68/9
f 4/81/12 6/85/16 7/84/17 1/78/2
f 9/57/22 17/58/55 15/60/47 14/59/42
f 10/43/26 62/44/231 27/46/92 11/45/31
f 11/45/30 27/46/91 26/48/88 25/47/84
f 12/55/34 18/56/59 17/58/56 9/57/23
f 12/55/35 19/53/63 20/54/67 18/56/60
f 13/129/38 57/74/208 56/76/203 14/123/43
f 14/59/41 15/60/46 16/62/51 13/61/37
f 15/122/48 67/75/250 68/73/254 16/128/53
f 19/53/64 21/51/71 22/52/74 20/54/68
f 21/51/72 23/49/77 24/50/80 22/52/75
f 23/49/78 25/47/83 26/48/87 24/50/81
f 42/7/149 44/5/158 47/6/169 43/8/153
f 42/115/148 50/116/182 54/120/198 44/119/157
f 47/118/170 70/121/264 60/117/224 43/114/154
f 49/41/175 61/42/226 62/44/232 10/43/27
f 53/39/193 65/40/243 61/42/227 49/41/176
f 55/37/201 66/38/246 65/40/244 53/39/195
f 56/35/206 67/36/249 66/38/247 55/37/202
f 72/63/270 73/68/273 74/81/276 71/78/267
f 72/77/271 78/93/285 75/86/280 73/68/275
f 74/81/278 76/85/282 77/84/283 71/78/268
f 80/63/290 81/68/293 82/81/296 79/78/287
f 80/77/291 86/93/305 83/86/300 81/68/295
f 82/81/298 84/85/302 85/84/303 79/78/288
f 88/63/310 89/68/313 90/81/316 87/78/307
f 88/77/311 94/93/325 91/86/320 89/68/315
f 90/81/318 92/85/322 93/84/323 87/78/308
s 3
f 44/119/156 54/120/197 58/130/213 45/132/160
f 46/131/165 69/133/259 70/121/263 47/118/168
f 51/126/188 58/130/216 54/120/199 52/124/192
f 63/125/237 70/121/265 69/133/262 64/127/242
s 4
f 16/2/52 46/4/164 45/3/161 13/1/39
f 16/136/54 68/135/255 69/133/260 46/131/166
f 29/19/99 30/20/103 31/22/107 28/21/95
f 29/19/100 32/17/111 33/18/114 30/20/104
f 31/22/108 59/24/217 48/23/172 28/21/97
f 32/17/112 34/15/117 35/16/120 33/18/115
f 34/15/118 36/13/123 37/14/127 35/16/121
f 36/13/124 38/11/131 39/12/135 37/14/128
f 38/11/132 40/9/139 41/10/143 39/12/136
f 40/9/140 42/7/147 43/8/151 41/10/144
f 45/132/162 58/130/214 57/134/209 13/137/40
f 48/23/173 59/24/218 60/26/221 50/27/180
f 50/27/183 60/26/223 63/29/236 52/30/191
f 51/32/187 64/31/240 68/34/256 57/33/211
f 52/30/190 63/29/235 64/31/239 51/32/186
f 57/134/210 58/130/215 51/126/185
f 64/127/241 69/133/261 68/135/257
