# Exported from Wings 3D 2.2.9
mtllib pista_curva_C.mtl
o Track.002_Cube.020
#84 vertices, 82 faces
v -34.59629152 -0.16226700 13.93765892
v -34.59629152 0.16227000 13.93765892
v -27.37323152 -0.16226700 13.93766092
v -27.37323152 0.16227000 13.93766092
v -34.18190852 -0.16226800 8.67242692
v -34.18190852 0.16227000 8.67242692
v -27.04777652 -0.16226800 9.80236292
v -27.04777652 0.16227000 9.80236292
v -32.94896052 -0.16226800 3.53684292
v -32.94896052 0.16226900 3.53684292
v -26.07942752 -0.16226800 5.76889092
v -26.07942752 0.16226900 5.76889092
v -30.92781152 -0.16226800 -1.34263708
v -30.92781152 0.16226900 -1.34263708
v -24.49202452 -0.16226800 1.93656092
v -24.49202452 0.16226900 1.93656092
v -28.16822952 -0.16226900 -5.84586808
v -28.16822952 0.16226800 -5.84586808
v -22.32465652 -0.16226800 -1.60026108
v -22.32465652 0.16226900 -1.60026108
v -24.73816052 -0.16226900 -9.86196008
v -24.73816052 0.16226800 -9.86196008
v -19.63069452 -0.16226900 -4.75448908
v -19.63069452 0.16226800 -4.75448908
v -20.72206952 -0.16226900 -13.29202508
v -20.72206952 0.16226800 -13.29202508
v -16.47646752 -0.16226900 -7.44845508
v -16.47646752 0.16226800 -7.44845508
v -16.21884152 -0.16226900 -16.05160808
v -16.21884152 0.16226800 -16.05160808
v -12.93964652 -0.16226900 -9.61582108
v -12.93964652 0.16226800 -9.61582108
v -11.33936352 -0.16226900 -18.07274908
v -11.33936352 0.16226700 -18.07274908
v -9.10732052 -0.16226900 -11.20322308
v -9.10732052 0.16226800 -11.20322308
v -6.20378252 -0.16227000 -19.30569708
v -6.20378252 0.16226700 -19.30569708
v -5.07384952 -0.16226900 -12.17157308
v -5.07384952 0.16226800 -12.17157308
v -0.93855452 -0.16227000 -19.72007608
v -0.93855452 0.16226700 -19.72007608
v -0.93855952 -0.16226900 -12.49702708
v -0.93855952 0.16226800 -12.49702708
v 4.32667448 -0.16227000 -19.30569008
v 4.32667448 0.16226700 -19.30569008
v 3.19673448 -0.16226900 -12.17157308
v 3.19673448 0.16226800 -12.17157308
v 9.46224848 -0.16226900 -18.07274908
v 9.46224848 0.16226700 -18.07274908
v 7.23020048 -0.16226900 -11.20322308
v 7.23020048 0.16226800 -11.20322308
v 14.34172348 -0.16226900 -16.05160808
v 14.34172348 0.16226700 -16.05160808
v 11.06252548 -0.16226900 -9.61582108
v 11.06252548 0.16226800 -9.61582108
v 18.84495048 -0.16226900 -13.29202508
v 18.84495048 0.16226800 -13.29202508
v 14.59934448 -0.16226900 -7.44845908
v 14.59934448 0.16226800 -7.44845908
v 22.86103748 -0.16226900 -9.86196408
v 22.86103748 0.16226800 -9.86196408
v 17.75357348 -0.16226800 -4.75449808
v 17.75357348 0.16226800 -4.75449808
v 26.29110548 -0.16226800 -5.84587608
v 26.29110548 0.16226800 -5.84587608
v 20.44753148 -0.16226800 -1.60027408
v 20.44753148 0.16226800 -1.60027408
v 29.05068048 -0.16226800 -1.34265008
v 29.05068048 0.16226800 -1.34265008
v 22.61489748 -0.16226800 1.93654392
v 22.61489748 0.16226900 1.93654392
v 31.07182948 -0.16226800 3.53682592
v 31.07182948 0.16226900 3.53682592
v 24.20229248 -0.16226700 5.76886692
v 24.20229248 0.16226900 5.76886692
v 32.30477048 -0.16226700 8.67240392
v 32.30477048 0.16226900 8.67240392
v 25.17064948 -0.16226700 9.80233092
v 25.17064948 0.16226900 9.80233092
v 32.71915348 -0.16226700 13.93762892
v 32.71915348 0.16227000 13.93762892
v 25.49610048 -0.16226700 13.93762092
v 25.49610048 0.16227000 13.93762092
vt -3.38155900 0.51108400
vt -3.38155900 0.99844300
vt -3.24070300 0.51108400
vt -3.24070300 0.99844300
vt -3.09984800 0.51108400
vt -3.09984800 0.99844300
vt -2.95899300 0.51108400
vt -2.95899300 0.99844300
vt -2.81813700 0.51108400
vt -2.81813700 0.99844300
vt -2.67728200 0.51108400
vt -2.67728200 0.99844300
vt -2.53642700 0.51108400
vt -2.53642700 0.99844300
vt -2.39557200 0.51108400
vt -2.39557200 0.99844300
vt -2.25471600 0.51108400
vt -2.25471600 0.99844300
vt -2.11386100 0.51108400
vt -2.11386100 0.99844300
vt -1.97300600 0.51108400
vt -1.97300600 0.99844300
vt -1.83215000 0.51108400
vt -1.83215000 0.99844200
vt -1.69129500 0.51108400
vt -1.69129500 0.99844300
vt -1.55044000 0.51108400
vt -1.55044000 0.99844200
vt -1.40958400 0.51108300
vt -1.40958400 0.99844200
vt -1.39988900 0.51108400
vt -1.39988900 0.99844200
vt -1.25903300 0.51108400
vt -1.25903300 0.99844200
vt -1.11817800 0.51108400
vt -1.11817800 0.99844200
vt -0.97732300 0.51108400
vt -0.97732300 0.99844200
vt -0.83646800 0.51108400
vt -0.83646800 0.99844200
vt -0.69561300 0.51108300
vt -0.69561300 0.99844200
vt -0.55475800 0.51108300
vt -0.55475800 0.99844200
vt -0.41390300 0.51108300
vt -0.41390300 0.99844200
vt -0.27304700 0.51108300
vt -0.27304700 0.99844200
vt -0.13219200 0.51108300
vt -0.13219200 0.99844200
vt 8.6630000e-3 0.51108300
vt 8.6630000e-3 0.99844200
vt 0.14951800 0.51108300
vt 0.14951800 0.99844200
vt 0.16666600 0.71856400
vt 0.29037300 0.51108300
vt 0.29037300 0.99844200
vt 0.43122800 0.51108300
vt 0.43122800 0.99844200
vt 0.57208300 0.51108300
vt 0.57208300 0.99844200
vt 0.71293800 0.51108300
vt 0.71293800 0.99844200
vt 0.85379300 0.51108300
vt 0.85379300 0.99844200
vt 0.99464800 0.51108300
vt 0.99464800 0.99844200
vt 1.13550300 0.51108300
vt 1.13550300 0.99844200
vt 1.27635800 0.51108300
vt 1.27635800 0.99844200
vt 1.41721300 0.51108300
vt 1.41721300 0.99844200
vt 1.42690800 0.51108300
vt 1.42690800 0.99844200
vt 1.56776300 0.51108300
vt 1.56776300 0.99844200
vt 1.70861700 0.51108300
vt 1.70861700 0.99844200
vt 1.84947100 0.51108300
vt 1.84947100 0.99844200
vt 1.99032600 0.51108300
vt 1.99032600 0.99844200
vt 2.13118000 0.51108300
vt 2.13118000 0.99844200
vt 2.27203400 0.51108300
vt 2.27203400 0.99844200
vn -2.7689096e-7 0.0000000e+0 1.00000000
vn -1.6641062e-8 -1.00000000 2.1144428e-7
vn -0.99691733 0.0000000e+0 -7.8459144e-2
vn -2.7689096e-7 0.0000000e+0 1.00000000
vn 0.0000000e+0 1.00000000 -0.0000000e+0
vn -0.99691733 0.0000000e+0 -7.8459144e-2
vn -2.7689096e-7 0.0000000e+0 1.00000000
vn 0.99691733 0.0000000e+0 7.8459093e-2
vn -1.6641062e-8 -1.00000000 2.1144428e-7
vn -2.7689096e-7 0.0000000e+0 1.00000000
vn 0.0000000e+0 1.00000000 -0.0000000e+0
vn 0.99691733 0.0000000e+0 7.8459093e-2
vn -8.3205312e-9 -1.00000000 1.0572214e-7
vn -8.3205312e-9 -1.00000000 1.0572214e-7
vn -0.99691733 0.0000000e+0 -7.8459144e-2
vn -0.97236978 0.0000000e+0 -0.23344597
vn 2.4756675e-8 1.00000000 -1.0311893e-7
vn -0.99691733 0.0000000e+0 -7.8459144e-2
vn -0.97236978 0.0000000e+0 -0.23344597
vn 2.4756675e-8 1.00000000 -1.0311893e-7
vn -8.3205312e-9 -1.00000000 1.0572214e-7
vn 0.99691733 0.0000000e+0 7.8459093e-2
vn -8.3205312e-9 -1.00000000 1.0572214e-7
vn 0.97237003 0.0000000e+0 0.23344492
vn 2.4756675e-8 1.00000000 -1.0311893e-7
vn 0.99691733 0.0000000e+0 7.8459093e-2
vn 2.4756675e-8 1.00000000 -1.0311893e-7
vn 0.97237003 0.0000000e+0 0.23344492
vn 0.0000000e+0 -1.00000000 0.0000000e+0
vn 0.0000000e+0 -1.00000000 0.0000000e+0
vn -0.97236978 0.0000000e+0 -0.23344597
vn -0.92387938 0.0000000e+0 -0.38268379
vn -0.97236978 0.0000000e+0 -0.23344597
vn 2.4756675e-8 1.00000000 -1.0311893e-7
vn -0.92387938 0.0000000e+0 -0.38268379
vn 2.4756675e-8 1.00000000 -1.0311893e-7
vn 0.0000000e+0 -1.00000000 0.0000000e+0
vn 0.0000000e+0 -1.00000000 0.0000000e+0
vn 0.97237003 0.0000000e+0 0.23344492
vn 0.92387954 0.0000000e+0 0.38268342
vn 2.4756675e-8 1.00000000 -1.0311893e-7
vn 0.97237003 0.0000000e+0 0.23344492
vn 2.4756675e-8 1.00000000 -1.0311893e-7
vn 0.92387954 0.0000000e+0 0.38268342
vn 1.8970694e-9 -1.00000000 6.3351170e-8
vn -0.92387938 0.0000000e+0 -0.38268379
vn 1.8970694e-9 -1.00000000 6.3351170e-8
vn -0.85264029 0.0000000e+0 -0.52249836
vn -1.8970694e-9 1.00000000 -6.3351170e-8
vn -0.92387938 0.0000000e+0 -0.38268379
vn -1.8970694e-9 1.00000000 -6.3351170e-8
vn -0.85264029 0.0000000e+0 -0.52249836
vn 1.8970694e-9 -1.00000000 6.3351170e-8
vn 0.92387954 0.0000000e+0 0.38268342
vn 0.85264009 0.0000000e+0 0.52249869
vn 1.8970694e-9 -1.00000000 6.3351170e-8
vn -1.8970694e-9 1.00000000 -6.3351170e-8
vn -1.8970694e-9 1.00000000 -6.3351170e-8
vn 0.92387954 0.0000000e+0 0.38268342
vn 0.85264009 0.0000000e+0 0.52249869
vn -6.1395360e-9 -1.00000000 1.2621916e-7
vn -6.1395360e-9 -1.00000000 1.2621916e-7
vn -0.85264029 0.0000000e+0 -0.52249836
vn -0.76040574 0.0000000e+0 -0.64944831
vn 6.1395360e-9 1.00000000 -1.2621916e-7
vn -0.85264029 0.0000000e+0 -0.52249836
vn -0.76040574 0.0000000e+0 -0.64944831
vn 6.1395360e-9 1.00000000 -1.2621916e-7
vn -6.1395360e-9 -1.00000000 1.2621916e-7
vn 0.85264009 0.0000000e+0 0.52249869
vn -6.1395360e-9 -1.00000000 1.2621916e-7
vn 0.76040635 0.0000000e+0 0.64944760
vn 6.1395360e-9 1.00000000 -1.2621916e-7
vn 0.85264009 0.0000000e+0 0.52249869
vn 6.1395360e-9 1.00000000 -1.2621916e-7
vn 0.76040635 0.0000000e+0 0.64944760
vn -8.0366054e-9 -1.00000000 6.2867986e-8
vn -0.64944797 0.0000000e+0 -0.76040604
vn -0.76040574 0.0000000e+0 -0.64944831
vn -8.0366054e-9 -1.00000000 6.2867986e-8
vn -0.64944797 0.0000000e+0 -0.76040604
vn -0.76040574 0.0000000e+0 -0.64944831
vn 8.0366054e-9 1.00000000 -6.2867986e-8
vn 8.0366054e-9 1.00000000 -6.2867986e-8
vn -8.0366054e-9 -1.00000000 6.2867986e-8
vn 0.76040635 0.0000000e+0 0.64944760
vn 0.64944828 0.0000000e+0 0.76040577
vn -8.0366054e-9 -1.00000000 6.2867986e-8
vn 8.0366054e-9 1.00000000 -6.2867986e-8
vn 0.76040635 0.0000000e+0 0.64944760
vn 8.0366054e-9 1.00000000 -6.2867986e-8
vn 0.64944828 0.0000000e+0 0.76040577
vn -0.64944797 0.0000000e+0 -0.76040604
vn -0.0000000e+0 -1.00000000 0.0000000e+0
vn -0.0000000e+0 -1.00000000 0.0000000e+0
vn -0.52249875 0.0000000e+0 -0.85264005
vn -0.64944797 0.0000000e+0 -0.76040604
vn 0.0000000e+0 1.00000000 0.0000000e+0
vn 0.0000000e+0 1.00000000 0.0000000e+0
vn -0.52249875 0.0000000e+0 -0.85264005
vn 0.64944828 0.0000000e+0 0.76040577
vn -0.0000000e+0 -1.00000000 0.0000000e+0
vn 0.52249844 0.0000000e+0 0.85264024
vn -0.0000000e+0 -1.00000000 0.0000000e+0
vn 0.0000000e+0 1.00000000 0.0000000e+0
vn 0.0000000e+0 1.00000000 0.0000000e+0
vn 0.64944828 0.0000000e+0 0.76040577
vn 0.52249844 0.0000000e+0 0.85264024
vn -0.0000000e+0 -1.00000000 0.0000000e+0
vn -0.0000000e+0 -1.00000000 0.0000000e+0
vn -0.52249875 0.0000000e+0 -0.85264005
vn -0.38268263 0.0000000e+0 -0.92387986
vn 3.5702178e-8 1.00000000 -5.2367291e-8
vn -0.52249875 0.0000000e+0 -0.85264005
vn -0.38268263 0.0000000e+0 -0.92387986
vn 3.5702178e-8 1.00000000 -5.2367291e-8
vn -0.0000000e+0 -1.00000000 0.0000000e+0
vn 0.52249844 0.0000000e+0 0.85264024
vn -0.0000000e+0 -1.00000000 0.0000000e+0
vn 0.38268355 0.0000000e+0 0.92387948
vn 3.5702178e-8 1.00000000 -5.2367291e-8
vn 0.52249844 0.0000000e+0 0.85264024
vn 3.5702178e-8 1.00000000 -5.2367291e-8
vn 0.38268355 0.0000000e+0 0.92387948
vn -4.3454614e-8 -1.00000000 4.6137498e-8
vn -0.38268263 0.0000000e+0 -0.92387986
vn -4.3454614e-8 -1.00000000 4.6137498e-8
vn -0.23344610 0.0000000e+0 -0.97236974
vn 1.9492434e-8 1.00000000 -1.1988563e-7
vn -0.38268263 0.0000000e+0 -0.92387986
vn 1.9492434e-8 1.00000000 -1.1988563e-7
vn -0.23344610 0.0000000e+0 -0.97236974
vn -4.3454614e-8 -1.00000000 4.6137498e-8
vn 0.38268355 0.0000000e+0 0.92387948
vn 0.23344520 0.0000000e+0 0.97236996
vn -4.3454614e-8 -1.00000000 4.6137498e-8
vn 1.9492434e-8 1.00000000 -1.1988563e-7
vn 1.9492434e-8 1.00000000 -1.1988563e-7
vn 0.38268355 0.0000000e+0 0.92387948
vn 0.23344520 0.0000000e+0 0.97236996
vn -3.8006687e-8 -1.00000000 1.1536033e-7
vn -0.23344610 0.0000000e+0 -0.97236974
vn -3.8006687e-8 -1.00000000 1.1536033e-7
vn -7.8458450e-2 0.0000000e+0 -0.99691738
vn -2.1657672e-8 1.00000000 -1.3674118e-7
vn -0.23344610 0.0000000e+0 -0.97236974
vn -7.8458450e-2 0.0000000e+0 -0.99691738
vn -2.1657672e-8 1.00000000 -1.3674118e-7
vn 7.8459004e-2 0.0000000e+0 0.99691734
vn 0.23344520 0.0000000e+0 0.97236996
vn -3.8006687e-8 -1.00000000 1.1536033e-7
vn -3.8006687e-8 -1.00000000 1.1536033e-7
vn -2.1657672e-8 1.00000000 -1.3674118e-7
vn 7.8459004e-2 0.0000000e+0 0.99691734
vn 0.23344520 0.0000000e+0 0.97236996
vn -2.1657672e-8 1.00000000 -1.3674118e-7
vn -5.0484213e-14 -1.00000000 1.3844570e-7
vn -5.0484213e-14 -1.00000000 1.3844570e-7
vn -7.8458450e-2 0.0000000e+0 -0.99691738
vn 7.8459753e-2 0.0000000e+0 -0.99691728
vn -7.8458450e-2 0.0000000e+0 -0.99691738
vn 5.0484213e-14 1.00000000 -1.3844570e-7
vn 7.8459753e-2 0.0000000e+0 -0.99691728
vn 5.0484213e-14 1.00000000 -1.3844570e-7
vn 7.8459004e-2 0.0000000e+0 0.99691734
vn -5.0484213e-14 -1.00000000 1.3844570e-7
vn -5.0484213e-14 -1.00000000 1.3844570e-7
vn -7.8458929e-2 0.0000000e+0 0.99691735
vn 7.8459004e-2 0.0000000e+0 0.99691734
vn 5.0484213e-14 1.00000000 -1.3844570e-7
vn 5.0484213e-14 1.00000000 -1.3844570e-7
vn -7.8458929e-2 0.0000000e+0 0.99691735
vn 3.8006710e-8 -1.00000000 1.1536044e-7
vn 7.8459753e-2 0.0000000e+0 -0.99691728
vn 3.8006710e-8 -1.00000000 1.1536044e-7
vn 0.23344514 0.0000000e+0 -0.97236997
vn 2.1657698e-8 1.00000000 -1.3674123e-7
vn 7.8459753e-2 0.0000000e+0 -0.99691728
vn 2.1657698e-8 1.00000000 -1.3674123e-7
vn 0.23344514 0.0000000e+0 -0.97236997
vn 3.8006710e-8 -1.00000000 1.1536044e-7
vn -7.8458929e-2 0.0000000e+0 0.99691735
vn -0.23344548 0.0000000e+0 0.97236989
vn 3.8006710e-8 -1.00000000 1.1536044e-7
vn 2.1657698e-8 1.00000000 -1.3674123e-7
vn 2.1657698e-8 1.00000000 -1.3674123e-7
vn -7.8458929e-2 0.0000000e+0 0.99691735
vn -0.23344548 0.0000000e+0 0.97236989
vn 4.3454688e-8 -1.00000000 4.6137576e-8
vn 4.3454688e-8 -1.00000000 4.6137576e-8
vn 0.23344514 0.0000000e+0 -0.97236997
vn 0.38268283 0.0000000e+0 -0.92387978
vn 4.2782047e-8 1.00000000 -1.3166969e-7
vn 0.23344514 0.0000000e+0 -0.97236997
vn 0.38268283 0.0000000e+0 -0.92387978
vn 4.2782047e-8 1.00000000 -1.3166969e-7
vn 4.3454688e-8 -1.00000000 4.6137576e-8
vn -0.23344548 0.0000000e+0 0.97236989
vn 4.3454688e-8 -1.00000000 4.6137576e-8
vn -0.38268364 0.0000000e+0 0.92387945
vn 4.2782047e-8 1.00000000 -1.3166969e-7
vn -0.23344548 0.0000000e+0 0.97236989
vn 4.2782047e-8 1.00000000 -1.3166969e-7
vn -0.38268364 0.0000000e+0 0.92387945
vn -0.0000000e+0 -1.00000000 0.0000000e+0
vn -0.0000000e+0 -1.00000000 0.0000000e+0
vn 0.38268283 0.0000000e+0 -0.92387978
vn 0.52249883 0.0000000e+0 -0.85264000
vn 0.38268283 0.0000000e+0 -0.92387978
vn -4.9822430e-10 1.00000000 -1.2145895e-7
vn 0.52249883 0.0000000e+0 -0.85264000
vn -4.9822430e-10 1.00000000 -1.2145895e-7
vn -0.0000000e+0 -1.00000000 0.0000000e+0
vn -0.0000000e+0 -1.00000000 0.0000000e+0
vn -0.38268364 0.0000000e+0 0.92387945
vn -0.52249796 0.0000000e+0 0.85264054
vn -4.9822430e-10 1.00000000 -1.2145895e-7
vn -0.38268364 0.0000000e+0 0.92387945
vn -4.9822430e-10 1.00000000 -1.2145895e-7
vn -0.52249796 0.0000000e+0 0.85264054
vn 1.7772396e-8 -1.00000000 6.0836866e-8
vn 0.52249883 0.0000000e+0 -0.85264000
vn 1.7772396e-8 -1.00000000 6.0836866e-8
vn 0.64944790 0.0000000e+0 -0.76040609
vn -2.7070551e-8 1.00000000 -5.7307627e-8
vn 0.52249883 0.0000000e+0 -0.85264000
vn -2.7070551e-8 1.00000000 -5.7307627e-8
vn 0.64944790 0.0000000e+0 -0.76040609
vn 1.7772396e-8 -1.00000000 6.0836866e-8
vn -0.52249796 0.0000000e+0 0.85264054
vn -0.64944734 0.0000000e+0 0.76040657
vn 1.7772396e-8 -1.00000000 6.0836866e-8
vn -2.7070551e-8 1.00000000 -5.7307627e-8
vn -2.7070551e-8 1.00000000 -5.7307627e-8
vn -0.52249796 0.0000000e+0 0.85264054
vn -0.64944734 0.0000000e+0 0.76040657
vn 2.5809006e-8 -1.00000000 1.2370492e-7
vn 2.5809006e-8 -1.00000000 1.2370492e-7
vn 0.64944790 0.0000000e+0 -0.76040609
vn 0.76040552 0.0000000e+0 -0.64944857
vn 0.0000000e+0 1.00000000 0.0000000e+0
vn 0.64944790 0.0000000e+0 -0.76040609
vn 0.76040552 0.0000000e+0 -0.64944857
vn 0.0000000e+0 1.00000000 0.0000000e+0
vn 2.5809006e-8 -1.00000000 1.2370492e-7
vn -0.64944734 0.0000000e+0 0.76040657
vn 2.5809006e-8 -1.00000000 1.2370492e-7
vn -0.76040642 0.0000000e+0 0.64944752
vn 0.0000000e+0 1.00000000 0.0000000e+0
vn -0.64944734 0.0000000e+0 0.76040657
vn 0.0000000e+0 1.00000000 0.0000000e+0
vn -0.76040642 0.0000000e+0 0.64944752
vn 8.0366100e-9 -1.00000000 6.2868058e-8
vn 0.85264062 0.0000000e+0 -0.52249782
vn 0.76040552 0.0000000e+0 -0.64944857
vn 8.0366100e-9 -1.00000000 6.2868058e-8
vn 0.85264062 0.0000000e+0 -0.52249782
vn 0.76040552 0.0000000e+0 -0.64944857
vn 1.8970728e-9 1.00000000 -6.3351241e-8
vn 1.8970728e-9 1.00000000 -6.3351241e-8
vn 8.0366100e-9 -1.00000000 6.2868058e-8
vn -0.76040642 0.0000000e+0 0.64944752
vn -0.85264004 0.0000000e+0 0.52249876
vn 8.0366100e-9 -1.00000000 6.2868058e-8
vn 1.8970728e-9 1.00000000 -6.3351241e-8
vn -0.76040642 0.0000000e+0 0.64944752
vn 1.8970728e-9 1.00000000 -6.3351241e-8
vn -0.85264004 0.0000000e+0 0.52249876
vn 0.85264062 0.0000000e+0 -0.52249782
vn -1.1784039e-8 -1.00000000 6.2274534e-8
vn -1.1784039e-8 -1.00000000 6.2274534e-8
vn 0.92387927 0.0000000e+0 -0.38268406
vn 0.85264062 0.0000000e+0 -0.52249782
vn 1.3681112e-8 1.00000000 -1.2562578e-7
vn 1.3681112e-8 1.00000000 -1.2562578e-7
vn 0.92387927 0.0000000e+0 -0.38268406
vn -0.85264004 0.0000000e+0 0.52249876
vn -1.1784039e-8 -1.00000000 6.2274534e-8
vn -0.92387997 0.0000000e+0 0.38268237
vn -1.1784039e-8 -1.00000000 6.2274534e-8
vn 1.3681112e-8 1.00000000 -1.2562578e-7
vn 1.3681112e-8 1.00000000 -1.2562578e-7
vn -0.85264004 0.0000000e+0 0.52249876
vn -0.92387997 0.0000000e+0 0.38268237
vn -3.3164889e-8 -1.00000000 1.2193896e-7
vn -3.3164889e-8 -1.00000000 1.2193896e-7
vn 0.92387927 0.0000000e+0 -0.38268406
vn 0.97237001 0.0000000e+0 -0.23344497
vn 1.1784039e-8 1.00000000 -6.2274534e-8
vn 0.92387927 0.0000000e+0 -0.38268406
vn 0.97237001 0.0000000e+0 -0.23344497
vn 1.1784039e-8 1.00000000 -6.2274534e-8
vn -3.3164889e-8 -1.00000000 1.2193896e-7
vn -0.92387997 0.0000000e+0 0.38268237
vn -3.3164889e-8 -1.00000000 1.2193896e-7
vn -0.97236948 0.0000000e+0 0.23344718
vn 1.1784039e-8 1.00000000 -6.2274534e-8
vn -0.92387997 0.0000000e+0 0.38268237
vn 1.1784039e-8 1.00000000 -6.2274534e-8
vn -0.97236948 0.0000000e+0 0.23344718
vn -2.1380850e-8 -1.00000000 5.9664425e-8
vn 0.97237001 0.0000000e+0 -0.23344497
vn -2.1380850e-8 -1.00000000 5.9664425e-8
vn 0.99691732 0.0000000e+0 -7.8459247e-2
vn -8.3204160e-9 1.00000000 -1.0572232e-7
vn 0.97237001 0.0000000e+0 -0.23344497
vn -8.3204160e-9 1.00000000 -1.0572232e-7
vn 0.99691732 0.0000000e+0 -7.8459247e-2
vn -2.1380850e-8 -1.00000000 5.9664425e-8
vn -0.97236948 0.0000000e+0 0.23344718
vn -0.99691740 0.0000000e+0 7.8458286e-2
vn -2.1380850e-8 -1.00000000 5.9664425e-8
vn -8.3204160e-9 1.00000000 -1.0572232e-7
vn -8.3204160e-9 1.00000000 -1.0572232e-7
vn -0.97236948 0.0000000e+0 0.23344718
vn -0.99691740 0.0000000e+0 7.8458286e-2
vn -1.1075649e-6 0.0000000e+0 1.00000000
vn 0.0000000e+0 -1.00000000 -0.0000000e+0
vn 0.99691732 0.0000000e+0 -7.8459247e-2
vn -1.6640832e-8 1.00000000 -2.1144464e-7
vn -1.1075649e-6 0.0000000e+0 1.00000000
vn 0.99691732 0.0000000e+0 -7.8459247e-2
vn -1.1075649e-6 0.0000000e+0 1.00000000
vn -0.99691740 0.0000000e+0 7.8458286e-2
vn 0.0000000e+0 -1.00000000 -0.0000000e+0
vn -1.6640832e-8 1.00000000 -2.1144464e-7
vn -1.1075649e-6 0.0000000e+0 1.00000000
vn -0.99691740 0.0000000e+0 7.8458286e-2
g Track.002_Cube.020_SciFiRoad
usemtl SciFiRoad
s 1
f 2/55/6 6/55/18 5/55/15 1/55/3
f 7/55/24 11/55/39 12/55/42 8/55/28
f 14/55/52 18/55/66 17/55/63 13/55/48
f 19/55/72 23/55/86 24/55/90 20/55/76
f 22/55/81 26/55/97 25/55/93 21/55/78
f 27/55/103 31/55/118 32/55/122 28/55/108
f 34/55/132 38/55/146 37/55/142 33/55/128
f 35/55/135 39/55/150 40/55/155 36/55/140
f 42/55/163 46/55/178 45/55/174 41/55/160
f 43/55/168 47/55/182 48/55/187 44/55/172
f 50/55/195 54/55/209 53/55/207 49/55/192
f 51/55/200 55/55/215 56/55/218 52/55/204
f 58/55/228 62/55/242 61/55/239 57/55/224
f 59/55/231 63/55/246 64/55/250 60/55/236
f 66/55/257 70/55/273 69/55/269 65/55/254
f 67/55/263 71/55/277 72/55/283 68/55/268
f 74/55/291 78/55/306 77/55/302 73/55/288
f 75/55/296 79/55/310 80/55/315 76/55/300
f 82/73/321 84/72/327 83/74/323 81/75/317
s 2
f 1/30/1 3/29/7 4/31/10 2/32/4
f 6/55/19 10/55/33 9/55/31 5/55/16
f 15/55/55 19/55/70 20/55/74 16/55/60
f 18/55/67 22/55/82 21/55/79 17/55/64
f 23/55/87 27/55/101 28/55/107 24/55/92
f 30/55/115 34/55/130 33/55/126 29/55/112
f 31/55/120 35/55/134 36/55/139 32/55/124
f 38/55/147 42/55/161 41/55/159 37/55/144
f 39/55/149 43/55/165 44/55/169 40/55/154
f 46/55/180 50/55/194 49/55/191 45/55/176
f 47/55/183 51/55/198 52/55/202 48/55/188
f 54/55/211 58/55/226 57/55/222 53/55/208
f 55/55/216 59/55/230 60/55/235 56/55/220
f 62/55/243 66/55/258 65/55/255 61/55/240
f 63/55/248 67/55/262 68/55/266 64/55/252
f 70/55/276 74/55/290 73/55/287 69/55/272
f 71/55/279 75/55/294 76/55/298 72/55/284
f 78/55/308 82/55/322 81/55/319 77/55/304
f 79/55/311 83/55/324 84/55/328 80/55/316
s 3
f 3/55/8 7/55/22 8/55/26 4/55/12
f 10/55/35 14/55/50 13/55/46 9/55/32
f 11/55/40 15/55/54 16/55/59 12/55/44
f 26/55/100 30/55/114 29/55/111 25/55/96
s 4
f 1/30/2 5/28/14 7/27/23 3/29/9
f 4/31/11 8/33/25 6/34/17 2/32/5
f 5/28/13 9/26/29 11/25/37 7/27/21
f 8/33/27 12/35/41 10/36/34 6/34/20
f 9/26/30 13/24/45 15/23/53 11/25/38
f 12/35/43 16/37/58 14/38/51 10/36/36
f 13/24/47 17/22/62 19/21/71 15/23/56
f 16/37/57 20/39/73 18/40/65 14/38/49
f 17/22/61 21/20/77 23/19/85 19/21/69
f 20/39/75 24/41/89 22/42/83 18/40/68
f 21/20/80 25/18/94 27/17/102 23/19/88
f 24/41/91 28/43/106 26/44/99 22/42/84
f 25/18/95 29/16/110 31/15/119 27/17/104
f 28/43/105 32/45/121 30/46/113 26/44/98
f 29/16/109 33/14/125 35/13/133 31/15/117
f 32/45/123 36/47/138 34/48/131 30/46/116
f 33/14/127 37/12/141 39/11/151 35/13/136
f 36/47/137 40/49/153 38/50/145 34/48/129
f 37/12/143 41/10/158 43/9/167 39/11/152
f 40/49/156 44/51/170 42/52/162 38/50/148
f 41/10/157 45/8/173 47/7/181 43/9/166
f 44/51/171 48/53/186 46/54/179 42/52/164
f 45/8/175 49/6/190 51/5/199 47/7/184
f 48/53/185 52/56/201 50/57/193 46/54/177
f 49/6/189 53/4/205 55/3/213 51/5/197
f 52/56/203 56/58/217 54/59/210 50/57/196
f 53/4/206 57/2/221 59/1/229 55/3/214
f 56/58/219 60/60/234 58/61/227 54/59/212
f 57/87/223 61/85/238 63/84/247 59/86/232
f 60/60/233 64/62/249 62/63/241 58/61/225
f 61/85/237 65/83/253 67/82/261 63/84/245
f 64/62/251 68/64/265 66/65/259 62/63/244
f 65/83/256 69/81/270 71/80/278 67/82/264
f 68/64/267 72/66/282 70/67/275 66/65/260
f 69/81/271 73/79/286 75/78/295 71/80/280
f 72/66/281 76/68/297 74/69/289 70/67/274
f 73/79/285 77/77/301 79/76/309 75/78/293
f 76/68/299 80/70/314 78/71/307 74/69/292
f 77/77/303 81/75/318 83/74/325 79/76/312
f 80/70/313 84/72/326 82/73/320 78/71/305
