# Exported from Wings 3D 2.2.9
mtllib pista_plana.mtl
o Track.012_Cube.007
#8 vertices, 6 faces
v 10.94279460 -0.16226900 -3.45684627
v 10.94279460 0.16226800 -3.45684627
v 10.94279460 -0.16226800 3.76620673
v 10.94279460 0.16226900 3.76620673
v -10.72638040 -0.16226900 -3.45684627
v -10.72638040 0.16226800 -3.45684627
v -10.72638040 0.16226900 3.76620673
v -10.72638040 -0.16226800 3.76620673
vt -8.3700000e-4 0.51067600
vt -8.3700000e-4 0.99901900
vt 0.66465200 1.07394200
vt 0.99916300 0.51067600
vt 0.99916300 0.99901900
vn 1.00000000 0.0000000e+0 0.0000000e+0
vn 0.0000000e+0 -1.00000000 1.3844561e-7
vn 0.0000000e+0 0.0000000e+0 -1.00000000
vn 1.00000000 0.0000000e+0 0.0000000e+0
vn 0.0000000e+0 0.0000000e+0 -1.00000000
vn 0.0000000e+0 1.00000000 -1.3844561e-7
vn 1.00000000 0.0000000e+0 0.0000000e+0
vn 0.0000000e+0 -1.00000000 1.3844561e-7
vn -0.0000000e+0 0.0000000e+0 1.00000000
vn 1.00000000 0.0000000e+0 0.0000000e+0
vn 0.0000000e+0 1.00000000 -1.3844561e-7
vn -0.0000000e+0 0.0000000e+0 1.00000000
vn -1.00000000 0.0000000e+0 -0.0000000e+0
vn 0.0000000e+0 -1.00000000 1.3844561e-7
vn 0.0000000e+0 0.0000000e+0 -1.00000000
vn -1.00000000 0.0000000e+0 -0.0000000e+0
vn 0.0000000e+0 0.0000000e+0 -1.00000000
vn 0.0000000e+0 1.00000000 -1.3844561e-7
vn -1.00000000 0.0000000e+0 -0.0000000e+0
vn 0.0000000e+0 1.00000000 -1.3844561e-7
vn -0.0000000e+0 0.0000000e+0 1.00000000
vn -1.00000000 0.0000000e+0 -0.0000000e+0
vn 0.0000000e+0 -1.00000000 1.3844561e-7
vn -0.0000000e+0 0.0000000e+0 1.00000000
g Track.012_Cube.007_SciFiRoad
usemtl SciFiRoad
s 1
f 1/3/3 5/3/15 6/3/17 2/3/5
f 4/3/12 7/3/21 8/3/24 3/3/9
s 2
f 2/5/6 6/2/18 7/1/20 4/4/11
f 3/4/8 8/1/23 5/2/14 1/5/2
s 3
f 2/3/4 4/3/10 3/3/7 1/3/1
f 5/3/13 8/3/22 7/3/19 6/3/16
