# Exported from Wings 3D 2.2.9
mtllib pista_centro.mtl
o Prop.001_Cube.011
#32 vertices, 32 faces
v -8.37176044 -0.16226900 -3.70048833
v -8.37176044 0.16226900 3.52256467
v -3.26428844 -0.16227000 -8.80795533
v -8.37176044 0.16226800 -3.70048833
v 3.95876856 -0.16227000 -8.80795533
v 3.95876856 0.16226800 -8.80795533
v -3.26428444 0.16226800 -8.80795533
v 3.95876456 -0.16226800 8.63004067
v 3.95876456 0.16227000 8.63004067
v 9.06623356 0.16226900 3.52256467
v -8.37176044 -0.16226800 3.52256467
v -3.26428844 -0.16226800 8.63004067
v -3.26428844 0.16227000 8.63004067
v 9.06623556 -0.16226900 -3.70048833
v 9.06623556 0.16226800 -3.70048833
v 9.06623356 -0.16226900 3.52255767
v 1.80397556 -0.16226800 3.42791467
v 1.80397556 -0.16226900 -3.60583733
v -1.10949944 -0.16226900 -3.60583733
v -3.16963844 -0.16226900 -1.54570233
v -3.14036044 0.16226900 1.35564967
v -3.14036044 0.16226800 -1.53357233
v 1.79184856 0.16226800 -3.57655633
v -1.09737244 0.16226800 -3.57656333
v 1.79184856 0.16226900 3.39864067
v 3.83483456 0.16226900 1.35564967
v -1.09737244 0.16226900 3.39864067
v 3.83483656 0.16226800 -1.53357233
v -3.16963844 -0.16226800 1.36777967
v -1.10949944 -0.16226800 3.42791467
v 3.86411556 -0.16226900 -1.54570233
v 3.86411356 -0.16226900 1.36777267
vt -1.32354900 0.51091000
vt -1.32354900 0.99608700
vt -0.99221800 0.51091000
vt -0.99221800 0.99608700
vt -0.99196800 0.51081400
vt -0.99196800 0.99895100
vt -0.66088600 0.51091000
vt -0.66088600 0.99608700
vt -0.66063600 0.51081400
vt -0.66063600 0.99895100
vt -0.32955500 0.51091000
vt -0.32955500 0.99608700
vt -0.32930500 0.51081400
vt -0.32930500 0.99895100
vt 1.7760000e-3 0.51091000
vt 1.7760000e-3 0.99608700
vt 2.0260000e-3 0.51081400
vt 2.0260000e-3 0.99895100
vt 0.16666600 0.71856400
vt 0.33310700 0.51091000
vt 0.33310700 0.99608700
vt 0.33335800 0.51081400
vt 0.33335800 0.99895100
vt 0.66443900 0.51091000
vt 0.66443900 0.99608700
vt 0.66468900 0.51081400
vt 0.66468900 0.99895100
vt 0.99577000 0.51091000
vt 0.99577000 0.99608700
vt 0.99602100 0.51081400
vt 0.99602100 0.99895100
vt 1.32710100 0.51091000
vt 1.32710100 0.99608700
vt 1.32735200 0.51081400
vt 1.32735200 0.99895100
vt 1.65868300 0.51081400
vt 1.65868300 0.99895100
vn -1.00000000 0.0000000e+0 -0.0000000e+0
vn -0.70710630 4.3576246e-6 -0.70710727
vn -8.9749151e-10 -1.00000000 1.6751390e-7
vn -8.9749151e-10 -1.00000000 1.6751390e-7
vn -1.00000000 0.0000000e+0 -0.0000000e+0
vn -0.70710706 0.0000000e+0 0.70710650
vn -1.1712642e-9 1.00000000 -1.6764395e-7
vn -1.1712642e-9 1.00000000 -1.6764395e-7
vn -0.70710630 4.3576246e-6 -0.70710727
vn 0.0000000e+0 -0.0000000e+0 -1.00000000
vn -8.9748203e-10 -1.00000000 1.6497555e-7
vn -8.9748203e-10 -1.00000000 1.6497555e-7
vn -1.00000000 0.0000000e+0 -0.0000000e+0
vn -0.70710630 4.3576246e-6 -0.70710727
vn 9.4515536e-15 1.00000000 -9.8889716e-8
vn 9.4515536e-15 1.00000000 -9.8889716e-8
vn 0.0000000e+0 -0.0000000e+0 -1.00000000
vn 0.70710678 0.0000000e+0 -0.70710678
vn 8.9748216e-10 -1.00000000 1.6497555e-7
vn 8.9748216e-10 -1.00000000 1.6497555e-7
vn 0.0000000e+0 -0.0000000e+0 -1.00000000
vn 0.70710678 0.0000000e+0 -0.70710678
vn 0.0000000e+0 1.00000000 0.0000000e+0
vn 0.0000000e+0 1.00000000 0.0000000e+0
vn -0.70710630 4.3576246e-6 -0.70710727
vn 0.0000000e+0 -0.0000000e+0 -1.00000000
vn 0.0000000e+0 1.00000000 0.0000000e+0
vn 0.0000000e+0 1.00000000 0.0000000e+0
vn 0.70710751 -7.6258287e-6 0.70710605
vn -0.0000000e+0 0.0000000e+0 1.00000000
vn -6.9758211e-8 -1.00000000 6.9758192e-8
vn -6.9758211e-8 -1.00000000 6.9758192e-8
vn 0.70710751 -7.6258287e-6 0.70710605
vn -0.0000000e+0 0.0000000e+0 1.00000000
vn 1.1712742e-9 1.00000000 -1.6433094e-7
vn 1.1712742e-9 1.00000000 -1.6433094e-7
vn 0.70710751 -7.6258287e-6 0.70710605
vn 1.00000000 -2.9861565e-12 2.7689136e-7
vn 1.1712647e-9 1.00000000 -1.6764395e-7
vn 1.1712647e-9 1.00000000 -1.6764395e-7
vn -1.00000000 0.0000000e+0 -0.0000000e+0
vn -0.70710706 0.0000000e+0 0.70710650
vn -9.4820000e-15 -1.00000000 9.8653041e-8
vn -9.4820000e-15 -1.00000000 9.8653041e-8
vn -0.0000000e+0 0.0000000e+0 1.00000000
vn -0.70710706 0.0000000e+0 0.70710650
vn 0.0000000e+0 -1.00000000 0.0000000e+0
vn 0.0000000e+0 -1.00000000 0.0000000e+0
vn -0.0000000e+0 0.0000000e+0 1.00000000
vn -0.70710706 0.0000000e+0 0.70710650
vn -1.1712737e-9 1.00000000 -1.6433094e-7
vn -1.1712737e-9 1.00000000 -1.6433094e-7
vn 0.70710678 0.0000000e+0 -0.70710678
vn 1.00000000 -2.9861565e-12 2.7689136e-7
vn 8.9748216e-10 -1.00000000 6.8860855e-8
vn 8.9748216e-10 -1.00000000 6.8860855e-8
vn 0.70710678 0.0000000e+0 -0.70710678
vn 1.00000000 -2.9861565e-12 2.7689136e-7
vn -9.4515555e-15 1.00000000 -9.8889716e-8
vn -9.4515555e-15 1.00000000 -9.8889716e-8
vn 0.70710751 -7.6258287e-6 0.70710605
vn 1.00000000 -2.9861565e-12 2.7689136e-7
vn -6.9758211e-8 -1.00000000 6.9758192e-8
vn -6.9758211e-8 -1.00000000 6.9758192e-8
vn -6.9758211e-8 -1.00000000 6.9758192e-8
vn -6.9758211e-8 -1.00000000 6.9758192e-8
vn -0.70424809 -8.9841373e-2 -0.70424652
vn 0.0000000e+0 -8.9837610e-2 -0.99595643
vn 8.9748216e-10 -1.00000000 1.6497555e-7
vn 8.9748216e-10 -1.00000000 1.6497555e-7
vn -1.2014567e-6 -8.9848264e-2 0.99595547
vn -0.70424556 -8.9856578e-2 0.70424711
vn -8.9748203e-10 -1.00000000 1.6497555e-7
vn -8.9748203e-10 -1.00000000 1.6497555e-7
vn -1.2014567e-6 -8.9848264e-2 0.99595547
vn 0.70424680 -8.9847968e-2 0.70424697
vn -8.9749151e-10 -1.00000000 1.6751390e-7
vn -8.9749151e-10 -1.00000000 1.6751390e-7
vn 0.99595533 -8.9849786e-2 3.0968247e-8
vn 0.70424680 -8.9847968e-2 0.70424697
vn -1.1712642e-9 1.00000000 -1.6764395e-7
vn -1.1712642e-9 1.00000000 -1.6764395e-7
vn 0.70424680 -8.9847968e-2 -0.70424697
vn 0.99595533 -8.9849786e-2 3.0968247e-8
vn 9.4515536e-15 1.00000000 -9.8889716e-8
vn 9.4515536e-15 1.00000000 -9.8889716e-8
vn 0.99595533 -8.9849786e-2 3.0968247e-8
vn 0.70424680 -8.9847968e-2 0.70424697
vn 0.0000000e+0 1.00000000 0.0000000e+0
vn 0.0000000e+0 1.00000000 0.0000000e+0
vn -1.2014567e-6 -8.9848264e-2 0.99595547
vn -0.70424556 -8.9856578e-2 0.70424711
vn 0.0000000e+0 1.00000000 0.0000000e+0
vn 0.0000000e+0 1.00000000 0.0000000e+0
vn -1.2014567e-6 -8.9848264e-2 0.99595547
vn 0.70424680 -8.9847968e-2 0.70424697
vn 1.1712742e-9 1.00000000 -1.6433094e-7
vn 1.1712742e-9 1.00000000 -1.6433094e-7
vn -0.70424809 -8.9841373e-2 -0.70424652
vn 0.0000000e+0 -8.9837610e-2 -0.99595643
vn 1.1712647e-9 1.00000000 -1.6764395e-7
vn 1.1712647e-9 1.00000000 -1.6764395e-7
vn -0.99595507 -8.9852693e-2 -6.7106168e-7
vn -0.70424809 -8.9841373e-2 -0.70424652
vn -1.1712737e-9 1.00000000 -1.6433094e-7
vn -1.1712737e-9 1.00000000 -1.6433094e-7
vn 0.0000000e+0 -8.9837610e-2 -0.99595643
vn 0.70424680 -8.9847968e-2 -0.70424697
vn -9.4515555e-15 1.00000000 -9.8889716e-8
vn -9.4515555e-15 1.00000000 -9.8889716e-8
vn -0.70424556 -8.9856578e-2 0.70424711
vn -0.99595507 -8.9852693e-2 -6.7106168e-7
vn -9.4820000e-15 -1.00000000 9.8653041e-8
vn -9.4820000e-15 -1.00000000 9.8653041e-8
vn 0.70424680 -8.9847968e-2 -0.70424697
vn 0.99595533 -8.9849786e-2 3.0968247e-8
vn 0.0000000e+0 -1.00000000 0.0000000e+0
vn 0.0000000e+0 -1.00000000 0.0000000e+0
vn 0.0000000e+0 -8.9837610e-2 -0.99595643
vn 0.70424680 -8.9847968e-2 -0.70424697
vn 8.9748216e-10 -1.00000000 6.8860855e-8
vn 8.9748216e-10 -1.00000000 6.8860855e-8
vn -0.70424556 -8.9856578e-2 0.70424711
vn -0.99595507 -8.9852693e-2 -6.7106168e-7
vn -6.9758211e-8 -1.00000000 6.9758192e-8
vn -6.9758211e-8 -1.00000000 6.9758192e-8
vn -0.99595507 -8.9852693e-2 -6.7106168e-7
vn -0.70424809 -8.9841373e-2 -0.70424652
g Prop.001_Cube.011_SciFiRoad
usemtl SciFiRoad
s 1
f 3/19/10 7/19/26 6/19/21 5/19/17
f 8/19/29 16/19/61 10/19/37 9/19/33
f 11/19/42 12/19/46 13/19/50 2/19/6
f 18/19/72 31/19/123 28/19/111 23/19/92
f 19/19/76 24/19/96 22/19/88 20/19/80
f 25/19/99 26/19/104 32/19/128 17/19/67
f 27/19/108 30/19/120 29/19/115 21/19/83
s 2
f 1/19/1 11/19/41 2/19/5 4/19/13
f 9/19/34 13/19/49 12/19/45 8/19/30
f 10/19/38 16/19/62 14/19/54 15/19/58
f 17/19/68 30/19/119 27/19/107 25/19/100
f 18/19/71 23/19/91 24/19/95 19/19/75
f 22/19/87 21/19/84 29/19/116 20/19/79
f 28/19/112 31/19/124 32/19/127 26/19/103
s 3
f 1/19/2 4/19/14 7/19/25 3/19/9
f 6/19/22 15/19/57 14/19/53 5/19/18
s 4
f 1/13/4 20/14/78 29/18/114 11/17/44
f 2/15/7 21/16/81 22/21/85 4/20/15
f 3/9/12 19/10/74 20/14/77 1/13/3
f 4/20/16 22/21/86 24/25/94 7/24/28
f 5/5/19 18/6/69 19/10/73 3/9/11
f 6/28/24 23/29/90 28/33/110 15/32/60
f 7/24/27 24/25/93 23/29/89 6/28/23
f 8/26/31 17/27/65 32/31/125 16/30/63
f 9/7/35 25/8/97 27/12/105 13/11/51
f 10/3/39 26/4/101 25/8/98 9/7/36
f 11/17/43 29/18/113 30/23/117 12/22/47
f 12/22/48 30/23/118 17/27/66 8/26/32
f 13/11/52 27/12/106 21/16/82 2/15/8
f 14/34/56 31/35/122 18/37/70 5/36/20
f 15/1/59 28/2/109 26/4/102 10/3/40
f 16/30/64 32/31/126 31/35/121 14/34/55
