# Exported from Wings 3D 2.2.9
mtllib rampa_triangular_cuadrada.mtl
o Prop.006_Cube.027
#6 vertices, 5 faces
v -5.72302643 -0.66666700 0.62701500
v -5.72302643 -0.66666700 -1.84344700
v -12.75315943 -0.66666700 -1.84344700
v -12.75315943 1.33333300 -1.84344700
v -12.75315943 -0.66666700 0.62701500
v -12.75315943 1.33333300 0.62701500
vt 0.15492700 0.58578000
vt 0.15543100 0.74689100
vt 0.24960100 0.57539900
vt 0.24960100 0.74686700
vt 0.57023200 0.57539900
vt 0.57023200 0.74686700
vt 0.72124500 0.58400900
vt 0.72124600 0.58400900
vt 0.89086400 0.57539900
vt 0.89086400 0.74686700
vt 1.21149500 0.57539900
vt 1.21149500 0.74686700
vt 1.29922700 0.57539900
vt 1.29922700 0.74686700
vn 0.0000000e+0 -1.00000000 0.0000000e+0
vn 0.27363194 0.96183448 0.0000000e+0
vn 0.0000000e+0 -0.0000000e+0 1.00000000
vn 0.0000000e+0 -0.0000000e+0 -1.00000000
vn 0.0000000e+0 -1.00000000 0.0000000e+0
vn 0.27363194 0.96183448 0.0000000e+0
vn -1.00000000 0.0000000e+0 -0.0000000e+0
vn 0.0000000e+0 -0.0000000e+0 -1.00000000
vn 0.0000000e+0 -1.00000000 0.0000000e+0
vn -1.00000000 0.0000000e+0 -0.0000000e+0
vn 0.0000000e+0 -0.0000000e+0 -1.00000000
vn 0.27363194 0.96183448 0.0000000e+0
vn -1.00000000 0.0000000e+0 -0.0000000e+0
vn 0.0000000e+0 -1.00000000 0.0000000e+0
vn 0.0000000e+0 -0.0000000e+0 1.00000000
vn -1.00000000 0.0000000e+0 -0.0000000e+0
vn 0.27363194 0.96183448 0.0000000e+0
vn 0.0000000e+0 -0.0000000e+0 1.00000000
g Prop.006_Cube.027_SciFiRoad
usemtl SciFiRoad
s 1
f 1/5/1 5/3/14 3/4/9 2/6/5
s 2
f 3/14/7 5/13/13 6/11/16 4/12/10
s 3
f 2/10/6 4/12/12 6/11/17 1/9/2
s 4
f 1/8/3 6/2/18 5/1/15
f 3/1/8 4/2/11 2/7/4
