# Exported from Wings 3D 2.2.9
mtllib rampa_triangular_completa.mtl
o Prop.004_Cube.031
#8 vertices, 8 faces
v 5.79919659 -0.50000000 1.30671352
v 5.79919659 -0.50000000 -1.16374948
v -6.87400641 -0.50000000 -1.16374748
v -6.87400641 -0.50000000 1.30671452
v -0.53740541 -0.50000000 1.30671352
v -0.53740541 1.50000000 1.30671252
v -0.53740541 -0.50000000 -1.16374948
v -0.53740541 1.50000000 -1.16374948
vt 0.15492700 0.57716700
vt 0.15543100 0.73827900
vt 0.24960100 0.57724700
vt 0.24960100 0.74915500
vt 0.57023200 0.57724700
vt 0.57023200 0.74915500
vt 0.72124500 0.57539600
vt 0.72124600 0.57539600
vt 0.89086400 0.57724700
vt 0.89086400 0.74915500
vt 1.21149500 0.57724700
vt 1.21149500 0.74915500
vn 0.0000000e+0 -1.00000000 0.0000000e+0
vn 0.30099011 0.95362726 0.0000000e+0
vn 0.0000000e+0 5.0000000e-7 1.00000000
vn 0.0000000e+0 0.0000000e+0 -1.00000000
vn 0.0000000e+0 -1.00000000 0.0000000e+0
vn 0.30099011 0.95362726 0.0000000e+0
vn -0.0000000e+0 -1.00000000 0.0000000e+0
vn -0.30099015 0.95362725 0.0000000e+0
vn -3.1562663e-7 0.0000000e+0 -1.00000000
vn 1.5781331e-7 5.0000000e-7 1.00000000
vn -0.0000000e+0 -1.00000000 0.0000000e+0
vn -0.30099015 0.95362725 0.0000000e+0
vn 0.0000000e+0 -1.00000000 0.0000000e+0
vn 7.8906657e-8 5.0000000e-7 1.00000000
vn 7.8906657e-8 5.0000000e-7 1.00000000
vn 0.0000000e+0 -1.00000000 0.0000000e+0
vn 0.30099011 0.95362726 0.0000000e+0
vn 7.8906657e-8 5.0000000e-7 1.00000000
vn 7.8906657e-8 5.0000000e-7 1.00000000
vn -0.30099015 0.95362725 0.0000000e+0
vn -1.5781331e-7 0.0000000e+0 -1.00000000
vn 0.0000000e+0 -1.00000000 0.0000000e+0
vn 0.0000000e+0 -1.00000000 0.0000000e+0
vn -1.5781331e-7 0.0000000e+0 -1.00000000
vn -1.5781331e-7 0.0000000e+0 -1.00000000
vn 0.30099011 0.95362726 0.0000000e+0
vn -0.30099015 0.95362725 0.0000000e+0
vn -1.5781331e-7 0.0000000e+0 -1.00000000
g Prop.004_Cube.031_SciFiRoad
usemtl SciFiRoad
s 1
f 2/10/6 8/12/26 6/11/17 1/9/2
s 2
f 1/5/1 5/3/13 7/4/22 2/6/5
f 3/5/7 7/3/23 5/4/16 4/6/11
s 3
f 1/8/3 6/2/18 5/1/14
f 3/8/9 8/2/28 7/1/24
f 5/1/15 6/2/19 4/7/10
f 7/1/21 8/2/25 2/7/4
s 4
f 4/10/12 6/12/20 8/11/27 3/9/8
