# Exported from Wings 3D 2.2.9
mtllib rampa_triangular_small.mtl
o Prop.005_Cube.029
#8 vertices, 8 faces
v 2.67840794 -0.50000000 1.18179196
v 2.67840794 -0.50000000 -1.28867104
v -5.30052706 -0.50000000 -1.28866904
v -5.30052706 -0.50000000 1.18179196
v -1.31105906 -0.50000000 1.18179196
v -1.31105906 1.50000000 1.18179196
v -1.31105906 -0.50000000 -1.28867104
v -1.31105906 1.50000000 -1.28867104
vt 0.15492700 0.58122500
vt 0.15543100 0.74233600
vt 0.24960100 0.57338100
vt 0.24960100 0.74873400
vt 0.57023200 0.57338100
vt 0.57023200 0.74873400
vt 0.72124500 0.57945400
vt 0.72124600 0.57945300
vt 0.89086400 0.57338100
vt 0.89086400 0.57834800
vt 0.89086400 0.74376700
vt 0.89086400 0.74873400
vt 1.21149500 0.57338100
vt 1.21149500 0.57834800
vt 1.21149500 0.74376700
vt 1.21149500 0.74873400
vn 0.0000000e+0 -1.00000000 0.0000000e+0
vn 0.44815743 0.89395465 0.0000000e+0
vn 0.0000000e+0 0.0000000e+0 1.00000000
vn 0.0000000e+0 0.0000000e+0 -1.00000000
vn 0.0000000e+0 -1.00000000 0.0000000e+0
vn 0.44815743 0.89395465 0.0000000e+0
vn -0.0000000e+0 -1.00000000 0.0000000e+0
vn -0.44815735 0.89395469 0.0000000e+0
vn -5.0131998e-7 0.0000000e+0 -1.00000000
vn 0.0000000e+0 -0.0000000e+0 1.00000000
vn -0.0000000e+0 -1.00000000 0.0000000e+0
vn -0.44815735 0.89395469 0.0000000e+0
vn 0.0000000e+0 -1.00000000 0.0000000e+0
vn 0.0000000e+0 0.0000000e+0 1.00000000
vn 0.0000000e+0 0.0000000e+0 1.00000000
vn 0.0000000e+0 -1.00000000 0.0000000e+0
vn 0.44815743 0.89395465 0.0000000e+0
vn 0.0000000e+0 0.0000000e+0 1.00000000
vn 0.0000000e+0 0.0000000e+0 1.00000000
vn -0.44815735 0.89395469 0.0000000e+0
vn -2.5065999e-7 0.0000000e+0 -1.00000000
vn 0.0000000e+0 -1.00000000 0.0000000e+0
vn 0.0000000e+0 -1.00000000 0.0000000e+0
vn -2.5065999e-7 0.0000000e+0 -1.00000000
vn -2.5065999e-7 0.0000000e+0 -1.00000000
vn 0.44815743 0.89395465 0.0000000e+0
vn -0.44815735 0.89395469 0.0000000e+0
vn -2.5065999e-7 0.0000000e+0 -1.00000000
g Prop.005_Cube.029_SciFiRoad
usemtl SciFiRoad
s 1
f 2/12/6 8/16/26 6/13/17 1/9/2
s 2
f 1/5/1 5/3/13 7/4/22 2/6/5
f 3/5/7 7/3/23 5/4/16 4/6/11
s 3
f 1/8/3 6/2/18 5/1/14
f 3/8/9 8/2/28 7/1/24
f 5/1/15 6/2/19 4/7/10
f 7/1/21 8/2/25 2/7/4
s 4
f 4/11/12 6/15/20 8/14/27 3/10/8
